<?xml version="1.0" encoding="UTF-8" standalone="no" ?>
<!DOCTYPE svg PUBLIC "-//W3C//DTD SVG 1.1//EN" "http://www.w3.org/Graphics/SVG/1.1/DTD/svg11.dtd">
<svg xmlns="http://www.w3.org/2000/svg" xmlns:xlink="http://www.w3.org/1999/xlink" version="1.1" width="788.950703125" height="190.6325" xml:space="preserve">
<desc>Created with Fabric.js 1.6.0-rc.1</desc>
<defs></defs>
  <g transform="translate(505.74 106.08) scale(2.3 2.31)">
   <text font-family="Grand Hotel" font-size="40" font-weight="normal" style="stroke: none; stroke-width: 1; stroke-dasharray: none; stroke-linecap: butt; stroke-linejoin: miter; stroke-miterlimit: 10; fill: #990075; fill-rule: nonzero; opacity: 1;" ><tspan x="-119.29" y="8.98" style="stroke: none; stroke-width: 0; stroke-dasharray: none; stroke-linecap: butt; stroke-linejoin: miter; stroke-miterlimit: 4; fill: #990075; fill-rule: ; opacity: 1;">G</tspan><tspan x="-98.78" y="8.98" style="stroke: none; stroke-width: 0; stroke-dasharray: none; stroke-linecap: butt; stroke-linejoin: miter; stroke-miterlimit: 4; fill: #990075; fill-rule: ; opacity: 1;">e</tspan><tspan x="-86.9" y="8.98" style="stroke: none; stroke-width: 0; stroke-dasharray: none; stroke-linecap: butt; stroke-linejoin: miter; stroke-miterlimit: 4; fill: #990075; fill-rule: ; opacity: 1;">l</tspan><tspan x="-78.12" y="8.98" style="stroke: none; stroke-width: 0; stroke-dasharray: none; stroke-linecap: butt; stroke-linejoin: miter; stroke-miterlimit: 4; fill: #990075; fill-rule: ; opacity: 1;">é</tspan><tspan x="-66.24" y="8.98" style="stroke: none; stroke-width: 0; stroke-dasharray: none; stroke-linecap: butt; stroke-linejoin: miter; stroke-miterlimit: 4; fill: #990075; fill-rule: ; opacity: 1;">i</tspan><tspan x="-59.33" y="8.98" style="stroke: none; stroke-width: 0; stroke-dasharray: none; stroke-linecap: butt; stroke-linejoin: miter; stroke-miterlimit: 4; fill: #990075; fill-rule: ; opacity: 1;">a</tspan><tspan x="-45.19" y="8.98" style="stroke: none; stroke-width: 0; stroke-dasharray: none; stroke-linecap: butt; stroke-linejoin: miter; stroke-miterlimit: 4; fill: #990075; fill-rule: ; opacity: 1;">s</tspan><tspan x="-32.43" y="8.98" style="stroke: none; stroke-width: 0; stroke-dasharray: none; stroke-linecap: butt; stroke-linejoin: miter; stroke-miterlimit: 4; fill: #990075; fill-rule: ; opacity: 1;"> </tspan><tspan x="-23.64" y="8.98" style="stroke: none; stroke-width: 0; stroke-dasharray: none; stroke-linecap: butt; stroke-linejoin: miter; stroke-miterlimit: 4; fill: #990075; fill-rule: ; opacity: 1;">d</tspan><tspan x="-9.01" y="8.98" style="stroke: none; stroke-width: 0; stroke-dasharray: none; stroke-linecap: butt; stroke-linejoin: miter; stroke-miterlimit: 4; fill: #990075; fill-rule: ; opacity: 1;">a</tspan><tspan x="5.13" y="8.98" style="stroke: none; stroke-width: 0; stroke-dasharray: none; stroke-linecap: butt; stroke-linejoin: miter; stroke-miterlimit: 4; fill: #990075; fill-rule: ; opacity: 1;"> </tspan><tspan x="13.92" y="8.98" style="stroke: none; stroke-width: 0; stroke-dasharray: none; stroke-linecap: butt; stroke-linejoin: miter; stroke-miterlimit: 4; fill: #990075; fill-rule: ; opacity: 1;">V</tspan><tspan x="37.47" y="8.98" style="stroke: none; stroke-width: 0; stroke-dasharray: none; stroke-linecap: butt; stroke-linejoin: miter; stroke-miterlimit: 4; fill: #990075; fill-rule: ; opacity: 1;">ó</tspan><tspan x="52.1" y="8.98" style="stroke: none; stroke-width: 0; stroke-dasharray: none; stroke-linecap: butt; stroke-linejoin: miter; stroke-miterlimit: 4; fill: #990075; fill-rule: ; opacity: 1;"> </tspan><tspan x="60.89" y="8.98" style="stroke: none; stroke-width: 0; stroke-dasharray: none; stroke-linecap: butt; stroke-linejoin: miter; stroke-miterlimit: 4; fill: #990075; fill-rule: ; opacity: 1;">D</tspan><tspan x="85.24" y="8.98" style="stroke: none; stroke-width: 0; stroke-dasharray: none; stroke-linecap: butt; stroke-linejoin: miter; stroke-miterlimit: 4; fill: #990075; fill-rule: ; opacity: 1;">i</tspan><tspan x="92.16" y="8.98" style="stroke: none; stroke-width: 0; stroke-dasharray: none; stroke-linecap: butt; stroke-linejoin: miter; stroke-miterlimit: 4; fill: #990075; fill-rule: ; opacity: 1;">v</tspan><tspan x="105.15" y="8.98" style="stroke: none; stroke-width: 0; stroke-dasharray: none; stroke-linecap: butt; stroke-linejoin: miter; stroke-miterlimit: 4; fill: #990075; fill-rule: ; opacity: 1;">a</tspan></text>
 </g>
<g style="stroke: none; stroke-width: 1; stroke-dasharray: none; stroke-linecap: butt; stroke-linejoin: miter; stroke-miterlimit: 10; fill: none; fill-rule: nonzero; opacity: 1;" transform="translate(69.99999999999999 10.000000000000007) scale(0.32 0.32)" >
  <path d="M 120.171 49.875 c -24.714 3.593 -43.784 9.579 -60.546 20.953 c -17.36 11.288 -31.043 26.768 -41.049 47.376 C 8.4 139.157 -1.179 166.608 0.018 194.317 c 1.198 27.193 11.204 61.058 25.399 86.458 c 13.769 25.229 31.472 48.917 58.067 63.455 c 26.682 14.198 68.243 25.314 100.569 21.466 c 32.07 -4.361 66.533 -20.781 89.881 -45.924 c 22.748 -25.569 41.989 -69.783 46.865 -104.932 c 4.532 -35.405 0.427 -76.966 -18.559 -104.931 c -19.496 -28.307 -64.654 -51.739 -95.184 -62.001 c -30.955 -10.262 -61.912 -1.796 -86.885 1.967 z" style="stroke: #000; stroke-width: 0.04; stroke-dasharray: none; stroke-linecap: butt; stroke-linejoin: miter; stroke-miterlimit: 10; fill: rgb(0,0,0); fill-rule: evenodd; opacity: 1;" transform="" stroke-linecap="round" />
  <path d="M 125.474 53.723 c -23.688 3.335 -43.528 9.579 -60.547 21.038 c -17.189 11.374 -30.958 26.597 -40.964 47.292 c -10.347 20.867 -19.84 48.916 -18.557 76.197 c 1.369 27.023 12.145 59.179 27.366 83.98 c 15.137 24.458 36.773 48.489 62.942 61.488 c 26.083 12.571 62.77 18.472 92.275 14.11 c 29.331 -4.618 60.631 -19.927 82.012 -40.963 c 20.952 -21.638 37.627 -52.424 43.445 -85.434 c 5.299 -33.183 7.094 -80.902 -10.778 -110.833 c -18.299 -29.932 -67.475 -56.101 -97.062 -67.303 c -29.932 -11.202 -56.528 -3.249 -80.132 0.428 z" style="stroke: #000; stroke-width: 0.04; stroke-dasharray: none; stroke-linecap: butt; stroke-linejoin: miter; stroke-miterlimit: 10; fill: #f7a122; fill-rule: evenodd; opacity: 1;" transform="" stroke-linecap="round" />
  <path d="M 174.818 46.882 c 15.991 6.585 32.583 14.024 49.773 23.005 c 17.019 8.722 36.687 22.491 52.763 29.76 c 16.081 6.841 31.044 7.525 42.93 12.657 c 11.461 5.131 18.644 7.354 26.855 18.557 c 8.208 11.203 15.562 27.194 22.405 48.318 c 1.884 -15.82 2.991 -31.642 2.991 -47.805 c -0.17 -16.334 1.797 -35.576 -2.991 -48.831 c -5.131 -13.342 -15.566 -23.091 -26.34 -30.274 c -10.945 -7.355 -20.267 -8.21 -38.569 -13.169 c -18.897 -5.388 -50.369 -18.814 -72.264 -17.532 c -21.889 1.369 -40.619 9.493 -57.553 25.314 z" style="stroke: #000; stroke-width: 0.04; stroke-dasharray: none; stroke-linecap: butt; stroke-linejoin: miter; stroke-miterlimit: 10; fill: rgb(0,0,0); fill-rule: evenodd; opacity: 1;" transform="" stroke-linecap="round" />
  <path d="M 185.508 46.882 c 17.875 5.986 34.462 13.255 50.798 21.465 c 15.994 8.21 30.958 21.124 45.925 27.879 c 15.052 6.415 31.555 7.013 42.932 11.716 c 11.116 4.447 16.076 6.841 23.43 16.078 c 7.098 9.407 13.599 21.892 19.5 39.081 c -0.427 -17.531 -1.03 -32.496 -1.456 -45.924 c -0.683 -13.512 1.967 -24.458 -1.968 -34.122 c -4.272 -10.005 -12.396 -18.044 -22.405 -24.458 c -10.003 -6.585 -20.354 -8.552 -37.627 -14.11 c -17.873 -5.645 -46.777 -20.183 -66.877 -19.584 c -20.012 0.514 -37.201 7.526 -52.252 21.979 z" style="stroke: #000; stroke-width: 0.04; stroke-dasharray: none; stroke-linecap: butt; stroke-linejoin: miter; stroke-miterlimit: 10; fill: #61a228; fill-rule: evenodd; opacity: 1;" transform="" stroke-linecap="round" />
  <path d="M 233.398 39.1 c 9.663 1.453 32.495 5.986 43.445 10.262 c 10.43 4.02 10.346 10.091 19.496 14.624 c 8.982 4.361 23.176 4.19 33.693 11.715 c 10.263 7.526 29.076 32.07 27.369 32.754 c -2.311 0.342 -26.34 -24.373 -39.085 -30.274 c -12.74 -6.157 -25.996 -2.564 -36.087 -6.414 c -10.091 -4.36 -14.281 -12.571 -24.46 -18.044 c -10.69 -5.558 -34.037 -11.801 -38.055 -14.111 c -4.189 -2.565 4.107 -2.309 13.684 -0.512 z M 176.272 57.658 c -12.656 1.967 -25.398 2.993 -38.569 3.42 c -13.596 0.342 -37.456 -0.256 -40.536 -1.453 c -2.907 -1.283 14.71 -4.619 22.493 -6.329 c 7.525 -1.968 14.881 -3.507 22.405 -4.961 c -9.406 -20.267 -13.94 -32.838 -14.624 -38.996 c -0.769 -6.157 8.466 4.362 11.204 2.908 c 2.48 -1.796 1.624 -11.802 5.387 -12.229 c 3.762 -0.342 14.794 4.19 17.617 10.262 c 2.48 5.902 -4.447 16.25 -1.966 24.459 c 2.564 8.124 7.782 15.221 16.589 22.919 z" style="stroke: #000; stroke-width: 0.04; stroke-dasharray: none; stroke-linecap: butt; stroke-linejoin: miter; stroke-miterlimit: 10; fill: rgb(0,0,0); fill-rule: evenodd; opacity: 1;" transform="" stroke-linecap="round" />
  <path d="M 162.076 53.296 c -3.334 -3.849 -5.558 -9.066 -6.329 -15.651 c -0.854 -7.012 2.138 -18.729 1.027 -23.945 c -1.539 -5.131 -4.79 -7.525 -9.75 -6.842 c -2.052 5.217 -4.191 8.124 -6.414 9.749 c -2.308 1.37 -4.618 0.771 -7.27 -1.453 c 4.191 7.782 6.843 14.623 9.237 21.465 c 2.138 6.67 3.164 12.742 3.421 18.558 c 4.875 0.941 8.296 1.283 11.203 1.025 c 2.566 -0.255 4.191 -1.452 4.875 -2.906 z" style="stroke: #000; stroke-width: 0.04; stroke-dasharray: none; stroke-linecap: butt; stroke-linejoin: miter; stroke-miterlimit: 10; fill: #b0722e; fill-rule: evenodd; opacity: 1;" transform="" stroke-linecap="round" />
  <path d="M 187.475 70.828 c 15.478 2.138 29.248 8.124 41.988 17.617 c 12.574 9.407 24.289 18.301 33.184 39.509 c 8.467 20.953 17.617 56.786 18.558 86.375 c 0.854 29.759 -3.423 59.093 -13.172 90.307 c 10.093 -17.274 16.764 -36.858 20.012 -60.033 c 3.253 -23.347 3.935 -54.305 -0.938 -78.079 c -5.22 -24.203 -13.256 -48.319 -29.764 -64.482 c -16.93 -16.078 -39.679 -26.255 -69.868 -31.214 z M 15.669 209.967 c 0.085 20.438 5.986 40.707 18.043 61.487 c 12.059 20.61 30.617 47.978 53.706 62.001 c 23.005 13.685 49.858 20.526 82.526 20.526 c -7.014 -4.277 -15.308 -7.697 -25.913 -10.263 c -10.775 -2.652 -25.569 -2.309 -37.115 -5.902 c -11.545 -3.85 -19.925 -6.071 -31.728 -17.532 c -12.485 -11.972 -31.213 -36.002 -40.022 -52.251 c -8.552 -16.42 -8.125 -35.234 -11.204 -44.896 c -3.334 -9.837 -5.985 -14.112 -8.293 -13.17 z" style="stroke: #000; stroke-width: 0.04; stroke-dasharray: none; stroke-linecap: butt; stroke-linejoin: miter; stroke-miterlimit: 10; fill: rgb(0,0,0); fill-rule: evenodd; opacity: 1;" transform="" stroke-linecap="round" />
</g>
<g style="stroke: none; stroke-width: 1; stroke-dasharray: none; stroke-linecap: butt; stroke-linejoin: miter; stroke-miterlimit: 10; fill: none; fill-rule: nonzero; opacity: 1;" transform="translate(10 64.07999999999998) scale(0.25 0.25)" >
  <path d="M 219.734 117.605 c -32.744 -23.16 -58.81 -27.365 -104.554 -27.211 c -44.973 0.151 -89.818 18.17 -104.517 56.455 c -14.699 38.284 -15.252 77.225 8.508 135.628 c 23.759 58.404 65.162 108.457 116.432 141.356 c 51.916 33.314 91.523 11.07 110.33 11.07 c 78.1 17.517 119.435 24.793 158.592 -5.54 c 38.27 -29.646 43.222 -42.959 54.5 -80.09 c 11.46 -37.727 10.381 -113.265 -0.73 -165.719 c -11.111 -52.454 -39.948 -75.815 -92.394 -92.48 c -52.446 -16.665 -106.537 -4.052 -146.167 26.531 z" style="stroke: none; stroke-width: 15.48; stroke-dasharray: none; stroke-linecap: round; stroke-linejoin: round; stroke-miterlimit: 10; fill: #e70000; fill-rule: evenodd; opacity: 1;" transform="" stroke-linecap="round" />
  <path d="M 234.396 125.074 c -30.013 -21.853 -55.439 -25.677 -100.87 -25.202 c -44.666 0.468 -91.13 17.976 -109.85 54.595 C 4.958 191.086 0.213 228.229 17.508 283.76 c 17.296 55.532 53.008 102.972 100.365 133.981 c 47.953 31.4 89.672 9.9 108.345 9.764 c 75.65 16.147 115.904 22.79 158.048 -6.422 c 41.19 -28.55 51.027 -52.936 62.74 -76.777 c 17.34 -35.295 22.76 -96.994 6.715 -147.732 c -15.796 -49.947 -31.492 -84.916 -81.766 -100.434 c -50.274 -15.517 -94.918 -0.52 -137.559 28.934 z" style="stroke: #000; stroke-width: 13.56; stroke-dasharray: none; stroke-linecap: round; stroke-linejoin: round; stroke-miterlimit: 10; fill: none; fill-rule: evenodd; opacity: 1;" transform="" stroke-linecap="round" />
  <path d="M 168.886 22.427 c 5.031 -18.168 51.27 -17.608 63.935 -21.883 c 0 0 -4.77 95.867 7.634 143.8 c -19.175 -1.07 -20.993 -4.168 -20.993 -4.168 s -28.628 -104.203 -50.576 -117.75 z" style="stroke: #000; stroke-width: 1.09; stroke-dasharray: none; stroke-linecap: butt; stroke-linejoin: miter; stroke-miterlimit: 10; fill: rgb(0,0,0); fill-rule: evenodd; opacity: 1;" transform="" stroke-linecap="round" />
  <path d="M 406.732 312.486 c 2.42 -1.106 -7.19 69.486 -97.416 89.423 c 23.045 -16.16 82.751 -39.863 97.416 -89.423 z" style="stroke: none; stroke-width: 1; stroke-dasharray: none; stroke-linecap: butt; stroke-linejoin: miter; stroke-miterlimit: 10; fill: #fff; fill-rule: evenodd; opacity: 1;" transform="" stroke-linecap="round" />
</g>
<g style="stroke: none; stroke-width: 1; stroke-dasharray: none; stroke-linecap: butt; stroke-linejoin: miter; stroke-miterlimit: 10; fill: none; fill-rule: nonzero; opacity: 1;" transform="translate(92.0200000000001 60.370000000000005) scale(0.45 0.45)" >
  <path d="M 50.25 50.25 l -1.5 -6 v -7.5 l 0.75 -7.5 L 51 24 l -2.25 -2.25 l -3 -1.5 h -6 L 38.25 30 l -1.5 13.5 L 39 60 l 5.25 15 l -6 -0.75 l -7.5 1.5 L 24 79.5 l -7.5 6 L 12 93 l -2.25 9 l 0.75 9 l 4.5 11.25 l -5.25 5.25 L 6 135 l -1.5 9 l 1.5 9 l 3 8.25 l 4.5 7.5 L 21 174 l 9.75 3 l -3.75 3 l -3 4.5 l -3.75 5.25 l -2.25 6 l -0.75 7.5 l 1.5 7.5 l 3 9 L 27 228 l 8.25 6.75 l 7.5 3.75 l 9 0.75 l 8.25 -0.75 l 8.25 -3.75 l 6 -5.25 l 5.25 -6 l 1.5 -6.75 l 7.5 1.5 l 3 0.75 h 0.75 v 6.75 l 2.25 6.75 l 5.25 6.75 l 6.75 5.25 l 9 4.5 l 9 1.5 l 10.5 -2.25 l 9 -6.75 l 2.25 5.25 L 150 252 l 5.25 4.5 l 7.5 3 l 7.5 1.5 l 8.25 -1.5 l 8.25 -3.75 L 195 249 l 3.75 3.75 l 4.5 2.25 l 5.25 1.5 h 6 l 6 -0.75 l 10.5 -4.5 l 3 -2.25 l 3 -3 l 1.5 -3.75 l 2.25 -3.75 l 1.5 -9 l -0.75 -5.25 l -1.5 -4.5 l -3.75 -5.25 l 4.5 0.75 l 5.25 -1.5 l 5.25 -2.25 l 3.75 -3.75 l 3.75 -5.25 l 3 -6 L 264 189 v -6.75 l -0.75 -5.25 l -2.25 -4.5 l -2.25 -5.25 l -2.25 -3.75 l -6 -6 l -3.75 -1.5 l -3 -0.75 l 5.25 -6.75 l 2.25 -10.5 v -11.25 L 247.5 117 l -3 -3.75 l -1.5 -3 l -2.25 -3 l -3.75 -3.75 l -4.5 -1.5 l -1.5 -0.75 l 3 -3.75 l 1.5 -3.75 l 1.5 -5.25 v -12 l -2.25 -6 l -3 -6 L 228 60 l -5.25 -4.5 l -5.25 -3 l -4.5 -2.25 l -4.5 -0.75 h -5.25 l -3.75 0.75 l -9 4.5 l -1.5 -4.5 l -4.5 -9 l -3 -3.75 l -3.75 -3.75 l -4.5 -3 l -3.75 -3 l -5.25 -1.5 l -6 -0.75 H 153 l -5.25 0.75 l -4.5 2.25 l -5.25 3 l -3.75 3 l -3.75 5.25 l -3 6 l -3 -1.5 l -2.25 -1.5 H 120 l -1.5 -0.75 l 2.25 -2.25 l 4.5 -6 l 4.5 -7.5 l 1.5 -3 L 132 21 l 0.75 -1.5 l -3 -3 l -3 -2.25 l -3 -1.5 H 123 L 125.25 9 l 0.75 -3.75 V 0 h -9 l -10.5 3 l -5.25 3 l -6 3.75 l -4.5 3.75 L 87 17.25 l -0.75 -3 v -3 l -0.75 -1.5 v -1.5 l -3.75 2.25 l -4.5 3 L 72 17.25 l -6 4.5 l -5.25 6 l -4.5 6 l -4.5 7.5 z" style="stroke: none; stroke-width: 1; stroke-dasharray: none; stroke-linecap: butt; stroke-linejoin: miter; stroke-miterlimit: 10; fill: #010101; fill-rule: evenodd; opacity: 1;" transform="" stroke-linecap="round" />
  <path d="M 45.75 56.25 l -1.5 -6.75 V 42 l 0.75 -6.75 l 2.25 -6 l -3 -2.25 l -3 -1.5 h -3 l -3 0.75 l -2.25 9 V 49.5 l 1.5 15.75 L 39.75 81 L 33 79.5 L 26.25 81 l -7.5 3.75 l -6.75 6 l -4.5 7.5 l -3 9 L 6 117 l 4.5 10.5 l -6 5.25 l -3 8.25 l -1.5 8.25 l 0.75 9 l 3 9 l 6 6.75 l 6.75 5.25 l 10.5 3 l -4.5 3 l -3.75 4.5 l -3 5.25 l -2.25 6.75 l -0.75 6.75 l 0.75 8.25 l 3 8.25 l 6 8.25 l 7.5 7.5 l 8.25 3.75 l 9 0.75 l 8.25 -1.5 l 7.5 -3 l 6.75 -5.25 l 4.5 -6.75 L 76.5 222 l 3 1.5 h 3.75 l 3.75 0.75 h 1.5 l -0.75 6.75 l 2.25 6.75 l 5.25 6.75 l 6.75 6 l 8.25 4.5 l 9.75 0.75 l 9.75 -2.25 l 10.5 -6 l 1.5 5.25 l 3.75 5.25 l 5.25 3.75 l 7.5 3 l 7.5 1.5 l 8.25 -0.75 l 8.25 -3.75 l 8.25 -7.5 l 3 4.5 l 5.25 2.25 l 5.25 0.75 h 6 l 6 -0.75 l 5.25 -1.5 l 4.5 -3 l 3.75 -2.25 l 2.25 -3 l 2.25 -3.75 l 1.5 -3.75 l 1.5 -4.5 l 0.75 -4.5 l -0.75 -4.5 l -2.25 -4.5 l -3 -5.25 h 4.5 l 5.25 -0.75 l 4.5 -3 l 5.25 -3.75 l 3.75 -5.25 l 2.25 -6 l 1.5 -6.75 v -7.5 l -0.75 -5.25 l -1.5 -5.25 l -1.5 -3.75 l -6 -7.5 l -3 -2.25 l -3.75 -2.25 l -3.75 -0.75 l 5.25 -6 l 3 -10.5 l -0.75 -12 l -3 -9.75 l -2.25 -3 l -3 -3.75 l -2.25 -2.25 L 234 111 l -2.25 -1.5 l -1.5 -1.5 l -1.5 -0.75 h -2.25 l 3 -3.75 L 231 99 l 1.5 -5.25 v -6 l -0.75 -6 l -1.5 -6 l -3 -5.25 l -4.5 -5.25 l -5.25 -4.5 l -4.5 -3 l -4.5 -1.5 l -5.25 -1.5 h -4.5 l -4.5 1.5 l -3.75 1.5 l -4.5 3 l -1.5 -4.5 l -2.25 -4.5 l -6 -9 l -3 -3.75 l -4.5 -3 l -4.5 -2.25 L 159 31.5 h -10.5 l -5.25 0.75 l -5.25 1.5 l -4.5 3 l -3.75 3.75 L 126 45 l -3 6 l -2.25 -1.5 l -3 -0.75 l -2.25 -0.75 l -0.75 -0.75 l 1.5 -1.5 l 4.5 -6 l 3.75 -7.5 l 2.25 -3 l 0.75 -3 l 0.75 -1.5 l -6 -4.5 l -2.25 -1.5 l -1.5 -0.75 l 2.25 -3.75 l 0.75 -3.75 V 6 l -3.75 -0.75 l -10.5 1.5 l -10.5 4.5 l -10.5 7.5 l -3.75 4.5 l -0.75 -3.75 l -0.75 -3 l -0.75 -1.5 v -0.75 l -3 2.25 l -5.25 3 l -4.5 3.75 l -6 4.5 L 56.25 33 l -4.5 6.75 l -3.75 7.5 z" style="stroke: none; stroke-width: 1; stroke-dasharray: none; stroke-linecap: butt; stroke-linejoin: miter; stroke-miterlimit: 10; fill: #010101; fill-rule: evenodd; opacity: 1;" transform="" stroke-linecap="round" />
  <path d="M 42.75 23.25 h 1.5 l 1.5 1.5 l 2.25 0.75 l -0.75 3.75 l -0.75 6 V 42 l 0.75 7.5 l 0.75 9 l 3 9 L 54.75 78 L 60 87.75 L 59.25 90 l -1.5 2.25 l -0.75 1.5 l -0.75 0.75 l -3 -6 l -3 -6.75 l -3 -7.5 l -3 -8.25 L 42 57 l -0.75 -10.5 V 35.25 z" style="stroke: none; stroke-width: 1; stroke-dasharray: none; stroke-linecap: butt; stroke-linejoin: miter; stroke-miterlimit: 10; fill: #035946; fill-rule: evenodd; opacity: 1;" transform="" stroke-linecap="round" />
  <path d="M 117 12.75 l -4.5 -0.75 l -3.75 0.75 l -4.5 1.5 l -9 9 l -4.5 6.75 l -6 9.75 L 78 51 l 3 -2.25 l 3.75 -2.25 l 4.5 -2.25 L 94.5 42 l 5.25 -1.5 l 5.25 -0.75 h 5.25 l 4.5 1.5 L 117 39 l 1.5 -3 l 2.25 -3 l 2.25 -3.75 l 3 -6 l 0.75 -2.25 l 0.75 -1.5 l -3.75 -3.75 l -3 -2.25 z" style="stroke: none; stroke-width: 1; stroke-dasharray: none; stroke-linecap: butt; stroke-linejoin: miter; stroke-miterlimit: 10; fill: #5d8e76; fill-rule: evenodd; opacity: 1;" transform="" stroke-linecap="round" />
  <path d="M 78 51 l 6.75 -11.25 l 6 -9.75 l 4.5 -6.75 l 9 -9 l 4.5 -1.5 l 3.75 -0.75 l 4.5 0.75 l 2.25 -2.25 l 1.5 -2.25 l 0.75 -2.25 V 4.5 l -4.5 0.75 l -5.25 0.75 l -4.5 1.5 l -4.5 2.25 l -4.5 3 l -3.75 3 l -4.5 4.5 l -4.5 6 l -0.75 -3.75 l -1.5 -3 l -0.75 -3 v -0.75 l -6.75 4.5 l -6.75 6 L 63 33 l -4.5 7.5 l -3 8.25 l -0.75 9.75 l 2.25 12 L 63 84 l 2.25 -3 v -4.5 l 1.5 -9 l 1.5 -3.75 L 70.5 60 l 1.5 -3.75 l 3 -3 z" style="stroke: none; stroke-width: 1; stroke-dasharray: none; stroke-linecap: butt; stroke-linejoin: miter; stroke-miterlimit: 10; fill: #035946; fill-rule: evenodd; opacity: 1;" transform="" stroke-linecap="round" />
  <path d="M 144.75 234.75 l -1.5 3 l -2.25 3 l -3.75 2.25 l -3.75 1.5 l -4.5 1.5 l -5.25 0.75 l -5.25 -0.75 l -9 -4.5 l -3.75 -3 l -3 -3.75 l -3 -5.25 l -1.5 -3.75 l -0.75 -3 v -4.5 l 0.75 -3 h -12 l -6 -1.5 l -5.25 -3 l -5.25 -4.5 l -4.5 -4.5 l -3.75 -5.25 l -3 -6.75 l -3 -9 l -0.75 -9 L 57 163.5 l 3.75 -7.5 l -0.75 4.5 l 2.25 7.5 l 3.75 8.25 l 6 8.25 l 7.5 6.75 l 9.75 5.25 l 11.25 2.25 l 13.5 -1.5 l -5.25 4.5 l -2.25 6.75 l 0.75 8.25 l 3 9 l 5.25 6.75 l 8.25 5.25 l 9.75 0.75 z M 69.75 225.75 l -2.25 3 l -3 2.25 l -3.75 1.5 l -3.75 2.25 l -3.75 0.75 h -4.5 l -3.75 -0.75 l -4.5 -2.25 l -6 -3.75 l -4.5 -5.25 l -4.5 -6 l -2.25 -6 l -1.5 -6 l -0.75 -5.25 l 0.75 -5.25 l 0.75 -3.75 l 2.25 -2.25 l 0.75 -2.25 l 4.5 -4.5 l -0.75 6 l 1.5 7.5 l 3 9 L 39 213 l 6 7.5 l 7.5 5.25 l 8.25 2.25 z M 54.75 156 l -1.5 3 l -2.25 3 l -0.75 3 v 3 L 39 171.75 L 34.5 174 l -5.25 -1.5 l -4.5 -2.25 l -4.5 -3 l -3.75 -3 l -3 -3.75 l -3 -4.5 l -0.75 -3.75 l -0.75 -4.5 v -4.5 l 0.75 -4.5 l 2.25 -6 l 3 -5.25 l 3.75 -5.25 l 5.25 -4.5 l 6 -3.75 l 6 -2.25 l -4.5 5.25 l -3 6 l -0.75 6.75 l 1.5 7.5 l 3 6.75 l 6 5.25 l 6.75 4.5 z M 237.75 234.75 l -3 4.5 l -3.75 4.5 l -5.25 3.75 l -5.25 3 l -6.75 1.5 l -6 -0.75 l -6 -2.25 l -6 -6 l -3.75 3 l -3 3 l -3 2.25 l -3.75 2.25 l -3 1.5 l -3.75 0.75 l -4.5 0.75 l -3.75 -0.75 l -6 -1.5 l -6 -3 L 153 249 l -2.25 -3 l -1.5 -3 l -0.75 -4.5 l 1.5 -2.25 l 2.25 -3.75 l 0.75 -3.75 v -5.25 l 3 3.75 l 4.5 4.5 l 5.25 3.75 l 7.5 3 L 180 240 l 7.5 -1.5 l 6.75 -3.75 l 6 -8.25 l 1.5 5.25 l 3 4.5 l 3.75 4.5 L 213 243 l 5.25 1.5 l 6 -0.75 l 6.75 -3 z M 214.5 177 l -0.75 3.75 l -3 7.5 l -2.25 3.75 l -6.75 6.75 l -7.5 3 l -6.75 0.75 l -7.5 -1.5 l -6.75 -3 l -5.25 -3.75 l -4.5 -3.75 l -2.25 -3 l -5.25 3.75 l -4.5 2.25 l -4.5 0.75 l -5.25 0.75 l -9 -1.5 l -3.75 -0.75 l -3 -1.5 l -6.75 -6.75 l -3.75 -4.5 l -3 -6 l -2.25 -6.75 v -6.75 l 1.5 -7.5 l 5.25 -6.75 l 0.75 -0.75 v -0.75 h 0.75 l -1.5 4.5 l -0.75 6.75 l 1.5 7.5 l 3 6 l 5.25 6 l 6.75 3 l 11.25 -0.75 l 13.5 -4.5 L 159 177 l 5.25 5.25 l 6.75 4.5 l 8.25 3.75 l 9.75 0.75 l 9.75 -0.75 l 9 -3.75 l 7.5 -7.5 z" style="stroke: none; stroke-width: 1; stroke-dasharray: none; stroke-linecap: butt; stroke-linejoin: miter; stroke-miterlimit: 10; fill: #2c285d; fill-rule: evenodd; opacity: 1;" transform="" stroke-linecap="round" />
  <path d="M 246 125.25 l -3.75 14.25 l -6.75 6.75 l -7.5 1.5 l -8.25 -3.75 l -8.25 -6 l -7.5 -7.5 l -5.25 -8.25 l -2.25 -7.5 l -0.75 0.75 l -0.75 3 l -0.75 4.5 l -0.75 5.25 l -12 3.75 l -9.75 1.5 l -7.5 -1.5 l -5.25 -3.75 l -4.5 -5.25 l -3 -6 l -2.25 -6.75 l -2.25 -7.5 l -2.25 4.5 l -0.75 4.5 V 117 l -10.5 3.75 l -9 1.5 l -6.75 -1.5 l -6 -3 l -4.5 -3.75 l -3 -5.25 l -1.5 -3.75 l 0.75 -4.5 l -3.75 8.25 l -2.25 7.5 l -0.75 6.75 v 6 l 1.5 6 l 3 5.25 l 3 4.5 l 5.25 3 l 2.25 -1.5 l 2.25 -3 l 3 -3 l 3.75 -3 l 9 -4.5 l 6 -0.75 H 141 l 0.75 -3.75 l 1.5 -4.5 l 1.5 -3 v -1.5 l 1.5 5.25 l 0.75 4.5 l 0.75 3.75 l 0.75 1.5 l 2.25 0.75 l 2.25 1.5 l 3 1.5 l 4.5 3 l 3.75 3.75 l 6 -3 l 2.25 -1.5 l 6 -1.5 h 9.75 l 1.5 -1.5 l 1.5 -3 l 2.25 -2.25 v -0.75 l 1.5 9 l 2.25 1.5 l 3 1.5 l 3 3 l 3.75 2.25 l 3 3 l 2.25 3 l 2.25 2.25 l 0.75 2.25 l 7.5 -3 l 6 -1.5 H 234 l 1.5 0.75 h 1.5 l 5.25 -6 l 3 -9 l 1.5 -8.25 z M 252 204 l -2.25 1.5 l -2.25 2.25 l -3 0.75 l -1.5 0.75 l -2.25 1.5 h -6 l -1.5 -2.25 l -2.25 -3 l -5.25 -5.25 l -2.25 -3 l -3 -3 l -3 -2.25 l -2.25 -1.5 l 2.25 -5.25 L 219 177 v -8.25 l -0.75 -5.25 l 3 -2.25 l 3 -0.75 l 3 -1.5 l 3 -0.75 l -3.75 4.5 l -1.5 6.75 v 7.5 l 0.75 9 l 3 7.5 l 6 6.75 l 6.75 3.75 z M 187.5 66.75 L 189 72 l 3 5.25 l 4.5 5.25 l 5.25 5.25 l 6 3.75 l 6.75 1.5 h 8.25 l 9.75 -4.5 l -1.5 6 l -1.5 3 l -2.25 3 l -2.25 -0.75 l -3.75 -0.75 h -12 l -3.75 0.75 l -3 0.75 l -3 2.25 l -1.5 -6 l -1.5 -3.75 l -1.5 -3 l -2.25 -3 l -2.25 -2.25 l -3 -2.25 l -3 -1.5 l 0.75 -4.5 v -6 L 183 72.75 L 180 75 l -6 3 l -3.75 1.5 l -4.5 1.5 l -3.75 0.75 h -4.5 l -3.75 0.75 l -3.75 -0.75 h -3 l -2.25 -0.75 l -2.25 -1.5 L 141 78 l -2.25 -1.5 l -0.75 -0.75 l -5.25 5.25 h -6 l -2.25 0.75 H 123 l -2.25 0.75 h -2.25 l -2.25 1.5 l -2.25 -3 l -4.5 -2.25 l -5.25 -3 l -6 -2.25 l -6.75 -0.75 l -7.5 0.75 l -7.5 1.5 l -8.25 3.75 l 0.75 -5.25 l 3 -6 l 3.75 -6.75 l 4.5 -6 V 60 l 3 3.75 l 5.25 3.75 l 7.5 3 l 8.25 1.5 h 9 l 9 -2.25 L 130.5 66 l 1.5 1.5 l 0.75 1.5 l 1.5 1.5 h 0.75 l 5.25 2.25 l 6 0.75 l 6 1.5 h 14.25 l 7.5 -2.25 l 6.75 -2.25 z M 93 114.75 l -0.75 6 v 12.75 l 1.5 5.25 l -3 -0.75 l -2.25 -0.75 h -3 l -3 0.75 h -3 l -3 0.75 l -2.25 1.5 L 72 141 l -3 -2.25 l -3 -3 l -3 -3.75 l -3 -6 l -1.5 -6 l -1.5 -6.75 l 1.5 -8.25 l 3 -8.25 v 3.75 L 63 105 l 2.25 5.25 L 69 114 l 4.5 3.75 l 6 1.5 l 6 -0.75 z M 38.25 101.25 l -3 1.5 l -3 2.25 l -3 1.5 l -2.25 2.25 l -3 2.25 l -4.5 4.5 l -1.5 2.25 l -2.25 -3.75 l -1.5 -4.5 l -0.75 -4.5 l 0.75 -5.25 l 1.5 -5.25 L 18 90 l 3 -4.5 l 4.5 -3 l -2.25 3 l -0.75 3 v 3 l 4.5 6 l 3 2.25 l 3.75 1.5 z" style="stroke: none; stroke-width: 1; stroke-dasharray: none; stroke-linecap: butt; stroke-linejoin: miter; stroke-miterlimit: 10; fill: #2c285d; fill-rule: evenodd; opacity: 1;" transform="" stroke-linecap="round" />
  <path d="M 122.25 195.75 l 7.5 1.5 l 3 1.5 l 3.75 1.5 l 3 2.25 l 4.5 6 l 2.25 3.75 l 1.5 6 v 5.25 l -0.75 6 l -2.25 5.25 l -11.25 3.75 l -9.75 -0.75 l -8.25 -5.25 l -5.25 -6.75 l -3 -9 l -0.75 -8.25 l 2.25 -6.75 l 5.25 -4.5 l -13.5 1.5 l -11.25 -2.25 l -9.75 -5.25 l -7.5 -6.75 l -6 -8.25 l -3.75 -8.25 l -2.25 -7.5 l 0.75 -4.5 l 1.5 -1.5 l 0.75 -2.25 l 2.25 -1.5 l 3 -3 l 2.25 -1.5 l 1.5 -0.75 l 6.75 -2.25 l 4.5 -0.75 h 4.5 l 9 1.5 l 4.5 2.25 l 3.75 1.5 l 3.75 3 l -1.5 5.25 l -0.75 5.25 v 6 l 0.75 5.25 l 2.25 6 l 3 5.25 L 117 189 l 6 4.5 v 1.5 z M 69.75 225.75 L 72 223.5 l 2.25 -3 l 0.75 -2.25 l 0.75 -3 L 69 211.5 l -6 -6 l -4.5 -6 l -3 -6 l -2.25 -6.75 l -1.5 -6 l -0.75 -4.5 v -3.75 h -3.75 l -6 1.5 l -3 1.5 l -4.5 3 l -3.75 3.75 l -0.75 6 l 1.5 7.5 l 3 9 L 39 213 l 6 7.5 l 7.5 5.25 l 8.25 2.25 z M 54.75 156 l 8.25 -8.25 l 2.25 -1.5 l 0.75 -1.5 l 2.25 -0.75 l -3.75 -2.25 l -3.75 -3.75 l -3 -4.5 l -2.25 -5.25 l -1.5 -4.5 l -1.5 -9 v -2.25 l -2.25 -0.75 H 48 l -2.25 -0.75 h -7.5 l -2.25 0.75 l -4.5 5.25 l -3 6 l -0.75 6.75 l 1.5 7.5 l 3 6.75 l 6 5.25 l 6.75 4.5 z M 237.75 234.75 l 0.75 -5.25 l -1.5 -6 l -2.25 -5.25 l -3.75 -6 l -9.75 -9.75 l -5.25 -3.75 l -4.5 -3.75 l -2.25 2.25 l -6 4.5 l -3.75 1.5 v 2.25 l 0.75 3.75 l 1.5 5.25 l -1.5 4.5 l -0.75 -3.75 l -1.5 -3 l -2.25 -3.75 l -3.75 -3 h -7.5 l -3.75 -0.75 l -7.5 -3 l -3.75 -2.25 l -3 -2.25 l -3 -2.25 h -2.25 l -2.25 0.75 l -3 1.5 l -2.25 1.5 l -3 0.75 l -1.5 2.25 l -3 3 l 3 4.5 l 2.25 4.5 L 153 219 v 4.5 l 3 3.75 l 4.5 4.5 l 5.25 3.75 l 7.5 3 L 180 240 l 7.5 -1.5 l 6.75 -3.75 l 6 -8.25 l 1.5 5.25 l 3 4.5 l 3.75 4.5 L 213 243 l 5.25 1.5 l 6 -0.75 l 6.75 -3 z M 214.5 177 v -9 l -2.25 -6.75 l -3.75 -6 l -2.25 -3 l -4.5 -4.5 l -10.5 -4.5 l -6 -0.75 h -6.75 l -7.5 2.25 l -6.75 5.25 l -3 -3 l -4.5 -3.75 l -10.5 -6 l -6.75 -0.75 l -6.75 0.75 l -6.75 2.25 l -7.5 5.25 l -1.5 4.5 l -0.75 6.75 l 1.5 7.5 l 3 6 l 5.25 6 l 6.75 3 l 11.25 -0.75 l 13.5 -4.5 L 159 177 l 5.25 5.25 l 6.75 4.5 l 8.25 3.75 l 9.75 0.75 l 9.75 -0.75 l 9 -3.75 l 7.5 -7.5 z M 246 125.25 l -0.75 -3 l -4.5 -9 l -2.25 -3 l -6 -4.5 l -4.5 -1.5 l -3 -1.5 l -3.75 -0.75 h -7.5 l -3.75 0.75 l -4.5 1.5 l -3.75 3 L 198 111 l -0.75 -3.75 l -1.5 -4.5 l -1.5 -3.75 l -1.5 -3 l -4.5 -6 l -3 -3 l -3.75 -1.5 l -3 -1.5 h -15 l -5.25 1.5 l -4.5 2.25 L 150 91.5 l -3 4.5 l -2.25 -3.75 l -4.5 -3 L 135 87 h -6.75 l -6.75 0.75 l -6.75 2.25 l -6 4.5 l -5.25 6 l -0.75 4.5 l 1.5 3.75 l 3 5.25 l 4.5 3.75 l 6 3 l 6.75 1.5 l 9 -1.5 L 144 117 v -5.25 l 0.75 -4.5 l 2.25 -4.5 l 2.25 7.5 l 2.25 6.75 l 3 6 l 4.5 5.25 l 5.25 3.75 l 7.5 1.5 l 9.75 -1.5 l 12 -3.75 l 0.75 -5.25 l 0.75 -4.5 l 0.75 -3 l 0.75 -0.75 l 2.25 7.5 l 5.25 8.25 l 7.5 7.5 l 8.25 6 l 8.25 3.75 l 7.5 -1.5 l 6.75 -6.75 z M 252 204 l 3 -4.5 l 3 -5.25 l 0.75 -6.75 v -6.75 l -1.5 -5.25 L 255 171 l -3 -3.75 l -3.75 -3.75 l -4.5 -2.25 L 240 159 l -5.25 -0.75 h -4.5 l -3.75 4.5 l -1.5 6.75 v 7.5 l 0.75 9 l 3 7.5 l 6 6.75 l 6.75 3.75 z M 93 114.75 l 1.5 -3.75 l 0.75 -4.5 l 4.5 -7.5 l 2.25 -4.5 l 2.25 -3 l 7.5 -6 l -3 -1.5 l -5.25 -3 l -6 -1.5 l -6.75 -0.75 h -7.5 l -6.75 3 l -7.5 4.5 l -6 7.5 l -0.75 0.75 V 96 l -0.75 0.75 v 3.75 L 63 105 l 2.25 5.25 L 69 114 l 4.5 3.75 l 6 1.5 l 6 -0.75 z M 38.25 101.25 l 1.5 -0.75 L 42 99 l 2.25 -0.75 l 1.5 -0.75 H 48 l 1.5 -0.75 h 3 L 50.25 90 l -3 -5.25 L 45 79.5 l -3 -0.75 h -8.25 l -4.5 1.5 l -2.25 1.5 l -1.5 0.75 l -2.25 3 l -0.75 3 v 3 l 4.5 6 l 3 2.25 l 3.75 1.5 z" style="stroke: none; stroke-width: 1; stroke-dasharray: none; stroke-linecap: butt; stroke-linejoin: miter; stroke-miterlimit: 10; fill: #662d91; fill-rule: evenodd; opacity: 1;" transform="" stroke-linecap="round" />
  <path d="M 232.5 88.5 v -9.75 L 231 73.5 l -1.5 -4.5 l -3 -3.75 l -2.25 -3.75 l -2.25 -2.25 l -2.25 -1.5 l -4.5 -2.25 l -9 -1.5 l -3.75 0.75 l -4.5 0.75 l -7.5 4.5 l -3 2.25 v -3 L 185.25 54 l -4.5 -8.25 l -3 -5.25 l -3.75 -3.75 l -3.75 -3 l -4.5 -2.25 l -4.5 -0.75 H 156 l -4.5 0.75 l -5.25 0.75 L 141 34.5 l -3.75 3.75 l -3 4.5 l -1.5 3.75 l -1.5 5.25 l -0.75 4.5 V 60 l 0.75 3 l -0.75 -1.5 l -3 -3.75 l -1.5 -4.5 l -1.5 -3.75 L 123 48 l -1.5 -0.75 l -2.25 -0.75 l -3 -0.75 l -3.75 -0.75 l -5.25 -0.75 h -3.75 l -3.75 0.75 l -3 0.75 l -7.5 3 l -3 1.5 l -6 4.5 V 60 l 3 3.75 l 5.25 3.75 l 7.5 3 l 8.25 1.5 h 9 l 9 -2.25 L 130.5 66 l 1.5 1.5 l 0.75 1.5 l 1.5 1.5 h 0.75 l 5.25 2.25 l 6 0.75 l 6 1.5 h 14.25 l 7.5 -2.25 l 6.75 -2.25 l 6.75 -3.75 L 189 72 l 3 5.25 l 4.5 5.25 l 5.25 5.25 l 6 3.75 l 6.75 1.5 h 8.25 z" style="stroke: none; stroke-width: 1; stroke-dasharray: none; stroke-linecap: butt; stroke-linejoin: miter; stroke-miterlimit: 10; fill: #662d91; fill-rule: evenodd; opacity: 1;" transform="" stroke-linecap="round" />
  <path d="M 151.5 37.5 l -0.75 3 l 2.25 2.25 l 3 1.5 l 5.25 2.25 l 4.5 3 l 2.25 2.25 l 3 1.5 l 2.25 -0.75 l 2.25 -3 l -1.5 -5.25 l -3 -3.75 l -3.75 -3 l -3 -0.75 l -4.5 -1.5 l -1.5 -0.75 H 156 l -2.25 0.75 z M 166.5 91.5 l -0.75 3 l 2.25 2.25 l 3 1.5 l 5.25 2.25 l 3.75 3 l 3 2.25 l 3 1.5 l 2.25 -0.75 l 2.25 -3.75 L 189 99 l -3 -4.5 l -3.75 -3 l -3 -0.75 L 177 90 l -1.5 -0.75 l -2.25 -0.75 h -3.75 z M 123 93.75 l -1.5 3 L 126 99 l 4.5 1.5 l 4.5 3.75 l 3.75 3.75 l 3 -0.75 l 1.5 -3 l -1.5 -4.5 l -3 -4.5 l -3.75 -3 l -4.5 -1.5 l -3 -0.75 l -3 0.75 z M 102 49.5 l -0.75 3 l 1.5 1.5 l 3 1.5 l 4.5 1.5 l 3.75 3 l 4.5 4.5 l 2.25 -0.75 L 123 60 l -1.5 -4.5 l -3 -3.75 l -3.75 -3 l -4.5 -1.5 l -3.75 -0.75 l -2.25 0.75 z M 185.25 153 l -0.75 3.75 l 1.5 3 l 3.75 2.25 l 4.5 3 l 4.5 2.25 l 2.25 3 l 1.5 1.5 l 3 -0.75 l 1.5 -3.75 l -1.5 -6 l -3 -6 l -5.25 -3 l -3.75 -1.5 l -3 -0.75 l -3 0.75 z M 219 111 l -0.75 2.25 l 1.5 1.5 l 2.25 0.75 l 3.75 1.5 l 3.75 2.25 l 1.5 2.25 l 1.5 1.5 l 2.25 -0.75 l 1.5 -2.25 l -0.75 -3.75 l -3 -3.75 l -3 -2.25 l -3.75 -1.5 l -3 -0.75 l -2.25 0.75 z M 81 86.25 l -0.75 2.25 l 1.5 1.5 l 3 0.75 l 3.75 1.5 l 3 2.25 l 2.25 2.25 l 1.5 0.75 h 2.25 l 0.75 -3 l -0.75 -3.75 l -2.25 -3 l -3.75 -3 l -3.75 -0.75 l -2.25 -0.75 l -2.25 0.75 z M 205.5 63 l -0.75 2.25 l 0.75 0.75 l 3 1.5 l 3.75 1.5 l 3 2.25 L 219 75 l 2.25 -0.75 l 1.5 -3 l -0.75 -3.75 l -3 -3.75 l -3.75 -2.25 l -3.75 -1.5 h -2.25 l -2.25 0.75 z M 234.75 167.25 l -0.75 2.25 l 0.75 0.75 l 3 0.75 l 3.75 2.25 l 3 2.25 l 2.25 1.5 l 1.5 1.5 h 2.25 l 1.5 -3 l -0.75 -3.75 l -3 -3.75 l -7.5 -3 l -2.25 -0.75 l -2.25 0.75 z M 158.25 163.5 l -3 -3 l -1.5 -2.25 l -12 -6 l 0.75 -3 l 0.75 -2.25 l 3 -1.5 l 0.75 -0.75 l 2.25 0.75 l 1.5 0.75 H 153 l 2.25 0.75 l 1.5 0.75 l 2.25 1.5 l 3 3 l -2.25 2.25 l -0.75 3 l -0.75 3.75 z" style="stroke: none; stroke-width: 1; stroke-dasharray: none; stroke-linecap: butt; stroke-linejoin: miter; stroke-miterlimit: 10; fill: #fff; fill-rule: evenodd; opacity: 1;" transform="" stroke-linecap="round" />
</g>
</svg>